<?xml version="1.0" encoding="UTF-8" standalone="no" ?>
<!DOCTYPE svg PUBLIC "-//W3C//DTD SVG 1.1//EN" "http://www.w3.org/Graphics/SVG/1.1/DTD/svg11.dtd">
<svg xmlns="http://www.w3.org/2000/svg" xmlns:xlink="http://www.w3.org/1999/xlink" version="1.1" width="1280" height="720" viewBox="15.03 14.83 1280 720" xml:space="preserve">
<desc>Created with Fabric.js 5.2.4</desc>
<defs>
</defs>
<g transform="matrix(Infinity NaN NaN Infinity 0 0)" id="c4f14176-cdac-4077-99bd-cc6020904d08"  >
</g>
<g transform="matrix(1 0 0 1 640 360)" id="f6b16b73-570b-408a-97bd-4b893db8b0fe"  >
<rect style="stroke: none; stroke-width: 1; stroke-dasharray: none; stroke-linecap: butt; stroke-dashoffset: 0; stroke-linejoin: miter; stroke-miterlimit: 4; fill: rgb(255,255,255); fill-rule: nonzero; opacity: 1; visibility: hidden;" vector-effect="non-scaling-stroke"  x="-640" y="-360" rx="0" ry="0" width="1280" height="720" />
</g>
<g transform="matrix(2.28 0 0 2.28 823.63 389.55)" style="" id="109ab545-98d4-4050-8ce8-81e465ffffe6"  >
		<text xml:space="preserve" font-family="Lato" font-size="90" font-style="normal" font-weight="700" style="stroke: none; stroke-width: 1; stroke-dasharray: none; stroke-linecap: butt; stroke-dashoffset: 0; stroke-linejoin: miter; stroke-miterlimit: 4; fill: rgb(20,21,137); fill-rule: nonzero; opacity: 1; white-space: pre;" ><tspan x="-176.38" y="28.27" >CuraSlot</tspan></text>
</g>
<g transform="matrix(0 0 NaN NaN 318.73 0)"  >
<g style=""   >
</g>
</g>
<g transform="matrix(0.39 0 0 0.29 341.46 390.31)"  >
<g style="" vector-effect="non-scaling-stroke"   >
		<g transform="matrix(0.13 0 0 -0.13 -1.54 -789.24)"  >
<path style="stroke: none; stroke-width: 1; stroke-dasharray: none; stroke-linecap: butt; stroke-dashoffset: 0; stroke-linejoin: miter; stroke-miterlimit: 4; fill: rgb(20,21,137); fill-rule: nonzero; opacity: 1;" vector-effect="non-scaling-stroke"  transform=" translate(-5130.69, -12309.03)" d="M 5012 12784 C 4829 12735 4686 12588 4649 12412 C 4643 12380 4640 12318 4642 12270 C 4649 12161 4694 12056 4770 11975 C 4873 11867 4983 11819 5130 11819 C 5276 11819 5387 11867 5488 11974 C 5573 12064 5620 12181 5620 12305 C 5620 12445 5574 12556 5475 12655 C 5354 12776 5171 12827 5012 12784 z" stroke-linecap="round" />
</g>
		<g transform="matrix(0.13 0 0 -0.13 -372.22 -680.93)"  >
<path style="stroke: none; stroke-width: 1; stroke-dasharray: none; stroke-linecap: butt; stroke-dashoffset: 0; stroke-linejoin: miter; stroke-miterlimit: 4; fill: rgb(20,21,137); fill-rule: nonzero; opacity: 1;" vector-effect="non-scaling-stroke"  transform=" translate(-2398.25, -11476.76)" d="M 3336 12759 C 2950 12718 2761 12618 1865 11976 C 1433 11667 1154 11479 900 11329 C 635 11171 570 11137 314 11022 C 58 10907 6 10880 2 10859 C -4 10829 45 10776 106 10744 C 196 10698 309 10684 470 10699 C 681 10720 776 10747 992 10848 C 1289 10987 1828 11316 2150 11555 C 2277 11649 2471 11841 2530 11930 C 2615 12059 2628 12051 2628 11876 C 2629 11604 2707 11411 2889 11230 C 2988 11131 3082 11077 3225 11035 C 3306 11011 3331 11008 3468 11008 C 3619 11008 3620 11008 3620 10986 C 3620 10974 3607 10951 3590 10935 C 3510 10859 3530 10726 3644 10566 C 3786 10367 4031 10220 4271 10190 C 4419 10172 4613 10204 4740 10267 L 4795 10295 L 4792 10440 C 4786 10806 4777 11061 4770 11065 C 4766 11068 4728 11061 4687 11050 C 4441 10988 4236 11030 4107 11170 C 4042 11240 4003 11317 3992 11397 C 3979 11496 3986 11511 4107 11629 C 4276 11794 4338 11904 4348 12053 C 4354 12153 4337 12235 4290 12336 C 4243 12437 4187 12521 4124 12582 C 3977 12727 3674 12795 3336 12759 z" stroke-linecap="round" />
</g>
		<g transform="matrix(0.13 0 0 -0.13 356.25 -680.72)"  >
<path style="stroke: none; stroke-width: 1; stroke-dasharray: none; stroke-linecap: butt; stroke-dashoffset: 0; stroke-linejoin: miter; stroke-miterlimit: 4; fill: rgb(20,21,137); fill-rule: nonzero; opacity: 1;" vector-effect="non-scaling-stroke"  transform=" translate(-7861.75, -11475.18)" d="M 6565 12759 C 6527 12754 6455 12739 6406 12725 C 6191 12664 6074 12559 5970 12337 C 5923 12236 5906 12153 5912 12053 C 5922 11904 5984 11794 6153 11629 C 6274 11511 6281 11496 6268 11397 C 6257 11317 6218 11240 6153 11170 C 6024 11030 5819 10988 5573 11050 C 5532 11061 5494 11068 5490 11065 C 5483 11061 5473 10794 5468 10450 L 5465 10295 L 5520 10267 C 5647 10204 5841 10172 5989 10190 C 6229 10220 6474 10367 6616 10566 C 6730 10726 6750 10859 6670 10935 C 6653 10951 6640 10974 6640 10986 C 6640 11008 6641 11008 6793 11008 C 6929 11008 6954 11011 7035 11035 C 7178 11077 7272 11131 7371 11230 C 7553 11411 7631 11604 7632 11876 C 7632 12051 7645 12059 7730 11930 C 7789 11841 7983 11649 8110 11555 C 8432 11316 8971 10987 9268 10848 C 9484 10747 9579 10720 9790 10699 C 9951 10684 10064 10698 10154 10744 C 10215 10776 10264 10829 10258 10859 C 10254 10880 10202 10907 9946 11022 C 9690 11137 9625 11171 9360 11329 C 9106 11479 8827 11667 8395 11976 C 7954 12292 7804 12394 7611 12510 C 7359 12661 7246 12707 7030 12744 C 6915 12764 6661 12772 6565 12759 z" stroke-linecap="round" />
</g>
		<g transform="matrix(0.13 0 0 -0.13 -5.6 51.07)"  >
<path style="stroke: none; stroke-width: 1; stroke-dasharray: none; stroke-linecap: butt; stroke-dashoffset: 0; stroke-linejoin: miter; stroke-miterlimit: 4; fill: rgb(20,21,137); fill-rule: nonzero; opacity: 1;" vector-effect="non-scaling-stroke"  transform=" translate(-5130, -5872.31)" d="M 4807 11733 C 4804 11728 4806 11568 4811 11375 C 4815 11183 4824 10836 4830 10605 C 4886 8310 4886 8354 4873 8356 C 4839 8362 4605 8441 4515 8477 C 4243 8586 4070 8711 3959 8879 C 3885 8991 3858 9084 3852 9253 C 3847 9423 3851 9432 3918 9369 C 3978 9312 4003 9296 4079 9270 C 4162 9242 4295 9242 4376 9270 C 4547 9329 4710 9478 4710 9574 C 4710 9633 4612 9702 4480 9737 C 4399 9758 4175 9760 4075 9741 C 3918 9711 3788 9642 3672 9528 C 3525 9383 3449 9208 3449 9013 C 3450 8644 3712 8306 4228 8012 L 4350 7943 L 4263 7879 C 4078 7745 3909 7545 3834 7371 C 3734 7141 3724 6876 3806 6631 C 3906 6331 4099 6101 4447 5867 C 4498 5833 4539 5802 4540 5799 C 4540 5796 4530 5788 4517 5783 C 4467 5760 4281 5611 4200 5530 C 4065 5393 3982 5256 3938 5091 C 3910 4988 3907 4780 3933 4663 C 4004 4331 4182 4036 4450 3805 L 4540 3727 L 4487 3671 C 4370 3547 4287 3400 4248 3248 C 4231 3180 4229 3145 4232 3031 C 4237 2874 4260 2791 4333 2660 C 4394 2552 4606 2343 4763 2238 L 4800 2213 L 4719 2140 C 4516 1957 4430 1786 4430 1570 C 4430 1467 4450 1376 4494 1275 C 4523 1210 4607 1086 4650 1045 C 4675 1021 4680 1019 4686 1033 C 4689 1042 4685 1091 4676 1142 C 4629 1404 4629 1495 4679 1604 C 4714 1681 4730 1703 4811 1786 C 4874 1850 5027 1966 5036 1957 C 5042 1952 5048 1737 5070 755 C 5077 486 5085 207 5088 135 L 5095 5 L 5130 5 L 5165 5 L 5172 135 C 5175 207 5183 486 5190 755 C 5212 1737 5218 1952 5224 1957 C 5233 1966 5386 1850 5449 1786 C 5530 1704 5546 1682 5583 1603 C 5613 1538 5615 1529 5615 1415 C 5615 1330 5608 1259 5591 1172 C 5578 1105 5571 1043 5574 1033 C 5580 1019 5585 1021 5610 1045 C 5653 1086 5737 1210 5766 1275 C 5877 1526 5845 1788 5678 1997 C 5651 2031 5592 2094 5547 2135 L 5465 2211 L 5494 2233 C 5708 2395 5865 2551 5927 2660 C 6000 2790 6023 2874 6028 3031 C 6031 3145 6029 3180 6012 3248 C 5973 3400 5890 3547 5773 3671 L 5720 3727 L 5819 3813 C 6137 4090 6329 4464 6347 4840 C 6359 5093 6262 5325 6059 5531 C 5978 5612 5793 5760 5743 5783 C 5730 5789 5720 5796 5720 5799 C 5720 5802 5741 5818 5768 5835 C 5874 5902 6060 6050 6150 6140 C 6490 6480 6599 6957 6430 7363 C 6358 7537 6183 7745 5997 7879 L 5910 7943 L 6032 8012 C 6548 8306 6810 8644 6811 9013 C 6811 9354 6558 9658 6209 9736 C 6104 9759 5867 9760 5780 9737 C 5648 9702 5550 9633 5550 9574 C 5550 9478 5713 9329 5884 9270 C 5965 9242 6098 9242 6181 9270 C 6257 9296 6282 9312 6342 9369 C 6409 9432 6413 9423 6408 9253 C 6402 9085 6376 8991 6301 8879 C 6250 8801 6146 8695 6070 8643 C 5990 8589 5838 8512 5720 8467 C 5624 8430 5417 8362 5386 8356 C 5382 8356 5379 8400 5379 8455 C 5381 8585 5419 10176 5449 11375 C 5454 11567 5456 11728 5454 11732 C 5447 11742 4813 11742 4807 11733 z M 4919 6933 C 4925 6620 4933 6338 4936 6306 L 4941 6247 L 4913 6265 C 4713 6392 4583 6536 4514 6705 C 4488 6769 4485 6786 4485 6900 C 4485 7014 4488 7031 4513 7098 C 4562 7222 4676 7353 4820 7449 C 4861 7476 4898 7499 4901 7499 C 4904 7500 4912 7245 4919 6933 z M 5445 7445 C 5554 7373 5678 7241 5724 7150 C 5770 7058 5784 6987 5777 6870 C 5766 6641 5623 6441 5347 6265 L 5319 6247 L 5324 6306 C 5327 6338 5335 6620 5342 6933 C 5348 7245 5356 7500 5358 7500 C 5361 7500 5400 7475 5445 7445 z M 4978 4595 C 4983 4403 4985 4243 4984 4241 C 4982 4239 4945 4263 4901 4295 C 4808 4362 4743 4437 4694 4535 C 4648 4628 4630 4699 4630 4791 C 4630 4956 4705 5087 4885 5239 L 4955 5298 L 4962 5122 C 4966 5024 4973 4788 4978 4595 z M 5422 5197 C 5560 5076 5630 4939 5630 4791 C 5630 4594 5522 4403 5341 4281 C 5307 4257 5277 4240 5276 4242 C 5274 4245 5285 4736 5296 5098 L 5302 5301 L 5324 5283 C 5335 5273 5380 5234 5422 5197 z M 5018 2922 C 5022 2778 5023 2660 5020 2660 C 5017 2660 5002 2677 4985 2697 C 4876 2833 4846 2898 4845 3000 C 4845 3094 4871 3151 4949 3230 L 5005 3285 L 5008 3235 C 5009 3208 5014 3067 5018 2922 z M 5329 3214 C 5394 3140 5415 3087 5415 3000 C 5415 2939 5410 2914 5387 2865 C 5360 2808 5255 2660 5241 2660 C 5238 2660 5238 2756 5241 2872 C 5245 2989 5248 3129 5249 3183 C 5250 3276 5251 3280 5269 3271 C 5279 3265 5306 3240 5329 3214 z" stroke-linecap="round" />
</g>
		<g transform="matrix(0.13 0 0 -0.13 -454.92 -624.53)"  >
<path style="stroke: none; stroke-width: 1; stroke-dasharray: none; stroke-linecap: butt; stroke-dashoffset: 0; stroke-linejoin: miter; stroke-miterlimit: 4; fill: rgb(20,21,137); fill-rule: nonzero; opacity: 1;" vector-effect="non-scaling-stroke"  transform=" translate(-1740.6, -11070.57)" d="M 2437 11676 C 2422 11667 2334 11596 2242 11517 C 1742 11085 1393 10847 990 10664 C 840 10595 821 10576 854 10525 C 878 10488 923 10472 1037 10459 C 1225 10438 1398 10472 1587 10569 C 1822 10689 2049 10833 2305 11025 C 2510 11180 2603 11261 2624 11304 L 2641 11340 L 2602 11428 C 2567 11504 2550 11554 2520 11660 C 2512 11690 2477 11697 2437 11676 z" stroke-linecap="round" />
</g>
		<g transform="matrix(0.13 0 0 -0.13 449.36 -624.61)"  >
<path style="stroke: none; stroke-width: 1; stroke-dasharray: none; stroke-linecap: butt; stroke-dashoffset: 0; stroke-linejoin: miter; stroke-miterlimit: 4; fill: rgb(20,21,137); fill-rule: nonzero; opacity: 1;" vector-effect="non-scaling-stroke"  transform=" translate(-8522.66, -11071.11)" d="M 7740 11664 C 7734 11650 7730 11633 7730 11626 C 7730 11605 7694 11506 7655 11420 C 7619 11340 7619 11340 7636 11304 C 7675 11223 8113 10892 8438 10699 C 8794 10487 8976 10432 9223 10459 C 9337 10472 9382 10488 9406 10525 C 9440 10576 9421 10595 9268 10665 C 8869 10847 8531 11077 8026 11510 C 7922 11599 7826 11676 7813 11681 C 7772 11696 7750 11692 7740 11664 z" stroke-linecap="round" />
</g>
		<g transform="matrix(0.13 0 0 -0.13 -385.78 -580.27)"  >
<path style="stroke: none; stroke-width: 1; stroke-dasharray: none; stroke-linecap: butt; stroke-dashoffset: 0; stroke-linejoin: miter; stroke-miterlimit: 4; fill: rgb(20,21,137); fill-rule: nonzero; opacity: 1;" vector-effect="non-scaling-stroke"  transform=" translate(-2254.31, -10742.13)" d="M 2660 11213 C 2652 11209 2578 11142 2495 11062 C 2207 10783 2005 10631 1667 10436 L 1549 10367 L 1552 10332 C 1555 10299 1559 10295 1600 10282 C 1662 10263 1859 10261 1940 10279 C 2082 10310 2252 10394 2433 10524 C 2522 10587 2867 10871 2928 10930 C 2981 10983 2970 11010 2875 11065 C 2839 11086 2785 11130 2755 11162 C 2702 11219 2691 11224 2660 11213 z" stroke-linecap="round" />
</g>
		<g transform="matrix(0.13 0 0 -0.13 381.09 -580.2)"  >
<path style="stroke: none; stroke-width: 1; stroke-dasharray: none; stroke-linecap: butt; stroke-dashoffset: 0; stroke-linejoin: miter; stroke-miterlimit: 4; fill: rgb(20,21,137); fill-rule: nonzero; opacity: 1;" vector-effect="non-scaling-stroke"  transform=" translate(-8005.8, -10741.68)" d="M 7506 11163 C 7475 11130 7421 11086 7385 11065 C 7290 11010 7279 10983 7333 10930 C 7393 10871 7738 10587 7827 10524 C 8011 10392 8176 10310 8320 10279 C 8401 10261 8598 10263 8660 10282 C 8701 10295 8705 10299 8708 10332 L 8711 10367 L 8593 10436 C 8252 10633 8052 10784 7764 11063 C 7681 11144 7602 11212 7587 11215 C 7565 11221 7554 11214 7506 11163 z" stroke-linecap="round" />
</g>
		<g transform="matrix(0.13 0 0 -0.13 -303.57 -554.83)"  >
<path style="stroke: none; stroke-width: 1; stroke-dasharray: none; stroke-linecap: butt; stroke-dashoffset: 0; stroke-linejoin: miter; stroke-miterlimit: 4; fill: rgb(20,21,137); fill-rule: nonzero; opacity: 1;" vector-effect="non-scaling-stroke"  transform=" translate(-2866.5, -10553.2)" d="M 3044 10947 C 3032 10940 2988 10893 2945 10842 C 2835 10710 2658 10534 2493 10392 C 2414 10324 2345 10260 2339 10249 C 2323 10219 2350 10185 2406 10166 C 2464 10147 2526 10146 2603 10165 C 2903 10236 3418 10691 3398 10866 C 3395 10895 3394 10895 3300 10908 C 3216 10919 3124 10938 3080 10954 C 3072 10957 3056 10954 3044 10947 z" stroke-linecap="round" />
</g>
		<g transform="matrix(0.13 0 0 -0.13 300.03 -555.09)"  >
<path style="stroke: none; stroke-width: 1; stroke-dasharray: none; stroke-linecap: butt; stroke-dashoffset: 0; stroke-linejoin: miter; stroke-miterlimit: 4; fill: rgb(20,21,137); fill-rule: nonzero; opacity: 1;" vector-effect="non-scaling-stroke"  transform=" translate(-7393.5, -10555.13)" d="M 7150 10946 C 7115 10933 7025 10916 6920 10902 C 6869 10895 6865 10893 6862 10866 C 6842 10691 7357 10236 7657 10165 C 7734 10146 7796 10147 7854 10166 C 7910 10185 7937 10219 7921 10249 C 7915 10260 7846 10324 7767 10392 C 7602 10534 7425 10710 7315 10842 C 7247 10923 7207 10960 7190 10959 C 7187 10959 7169 10953 7150 10946 z" stroke-linecap="round" />
</g>
</g>
</g>
<g transform="matrix(0 0 NaN NaN 318.73 0)"  >
<g style=""   >
</g>
</g>
<g transform="matrix(0 0 NaN NaN 318.73 0)"  >
<g style=""   >
</g>
</g>
<g transform="matrix(0 0 NaN NaN 318.73 0)"  >
<g style=""   >
</g>
</g>
<g transform="matrix(0 0 NaN NaN 318.73 0)"  >
<g style=""   >
</g>
</g>
<g transform="matrix(0 0 NaN NaN 318.73 0)"  >
<g style=""   >
</g>
</g>
<g transform="matrix(0 0 NaN NaN 318.73 0)"  >
<g style=""   >
</g>
</g>
<g transform="matrix(0 0 NaN NaN 318.73 0)"  >
<g style=""   >
</g>
</g>
<g transform="matrix(0 0 NaN NaN 318.73 0)"  >
<g style=""   >
</g>
</g>
<g transform="matrix(0 0 NaN NaN 318.73 0)"  >
<g style=""   >
</g>
</g>
<g transform="matrix(0 0 NaN NaN 318.73 0)"  >
<g style=""   >
</g>
</g>
</svg>